<svg width="48" height="48" viewBox="0 0 48 48" xmlns="http://www.w3.org/2000/svg">
  <defs>
    <!-- Filtro de sombra suave -->
    <filter id="shadow" x="-50%" y="-50%" width="200%" height="200%">
      <feDropShadow dx="0" dy="2" stdDeviation="2" flood-color="#000000" flood-opacity="0.1"/>
    </filter>
  </defs>
  
  <!-- Letra R estilizada - diseño limpio y geométrico -->
  <g filter="url(#shadow)">
    <!-- Tallo vertical principal -->
    <rect x="8" y="6" width="7" height="26" rx="1" fill="#1E3A8A"/>
    
    <!-- Parte superior curva de la R -->
    <path d="M 15 6 L 15 13 Q 15 10 19 10 Q 23 10 24 12 L 24 16 Q 24 14 22 14 L 20 14 Q 18 14 17 15 L 15 17 Z" 
          fill="#1E3A8A"/>
    
    <!-- Pierna diagonal de la R -->
    <path d="M 15 18 L 22 12 L 28 12 L 20 18 L 20 20 L 26 26 L 32 26 L 24 20 L 22 20 Z" 
          fill="#1E3A8A"/>
    
    <!-- Punta inferior derecha -->
    <path d="M 26 26 L 32 26 L 30 24 L 28 24 Z" 
          fill="#1E3A8A"/>
  </g>
  
  <!-- Círculo naranja vibrante -->
  <circle cx="12" cy="40" r="5" fill="#F97316" filter="url(#shadow)"/>
  
  <!-- Círculo naranja interno para profundidad -->
  <circle cx="12" cy="40" r="3.5" fill="#FB923C"/>
</svg>
