<svg width="48" height="48" viewBox="0 0 48 48" xmlns="http://www.w3.org/2000/svg">
  <defs>
    <!-- Gradiente azul para dar profundidad a la R -->
    <linearGradient id="blueGradient" x1="0%" y1="0%" x2="100%" y2="100%">
      <stop offset="0%" style="stop-color:#1E40AF;stop-opacity:1" />
      <stop offset="100%" style="stop-color:#1E3A8A;stop-opacity:1" />
    </linearGradient>
    
    <!-- Gradiente naranja para el círculo -->
    <radialGradient id="orangeGradient" cx="50%" cy="50%">
      <stop offset="0%" style="stop-color:#FB923C;stop-opacity:1" />
      <stop offset="100%" style="stop-color:#F97316;stop-opacity:1" />
    </radialGradient>
    
    <!-- Sombra suave para profundidad -->
    <filter id="shadow" x="-20%" y="-20%" width="140%" height="140%">
      <feDropShadow dx="0" dy="1" stdDeviation="1.5" flood-opacity="0.15"/>
    </filter>
  </defs>
  
  <!-- Letra R estilizada con gradiente -->
  <g filter="url(#shadow)">
    <!-- Trazo vertical izquierdo con punta superior izquierda -->
    <path d="M6 4 L9 4 L6 8 L6 28 L12 28 L12 20" 
          fill="url(#blueGradient)"/>
    
    <!-- Cuerpo vertical -->
    <rect x="6" y="8" width="6" height="20" fill="url(#blueGradient)"/>
    
    <!-- Loop superior redondeado -->
    <path d="M12 20 Q12 10 20 10 Q24 10 26 12 L26 16 L22 16 L20 20 L12 20 Z" 
          fill="url(#blueGradient)"/>
    
    <!-- Pierna diagonal extendida hacia abajo-derecha -->
    <path d="M12 20 L20 12 L26 12 L18 20 L18 22 L26 28 L32 28 L24 20 L20 20 Z" 
          fill="url(#blueGradient)"/>
    
    <!-- Punta afilada inferior derecha -->
    <path d="M30 28 L34 28 L34 24 Z" 
          fill="url(#blueGradient)"/>
  </g>
  
  <!-- Círculo naranja con gradiente radial para efecto de profundidad -->
  <circle cx="10" cy="38" r="4" fill="url(#orangeGradient)" filter="url(#shadow)"/>
</svg>
